# xmcd
#
# Track frame offsets: 
#        150
#        12715
#        29430
#        43335
#        60425
#        77952
#        91032
#        108897
#        126575
#        144525
#        159175
#
# Disc length: 2389 seconds
#
# Revision: 3
# Processed by: cddbd v1.5.2PL0 Copyright (c) Steve Scherf et al.
# Submitted via: ExactAudioCopy v0.99pb5
#
DISCID=8f09530b
DTITLE=Koko Taylor - I Got What It Takes
DYEAR=1975
DGENRE=Blues
TTITLE0=Trying To Make A Living
TTITLE1=I Got What It Takes
TTITLE2=Mama, He Treats Your Daughter Mean
TTITLE3=Voodoo Woman
TTITLE4=Be What You Want To Be
TTITLE5=Honkey Tonkey
TTITLE6=Big Boss Man
TTITLE7=Blues Never Die
TTITLE8=Find A Fool
TTITLE9=Happy Home
TTITLE10=That's Why I'm Crying
EXTD=
EXTT0=
EXTT1=
EXTT2=
EXTT3=
EXTT4=
EXTT5=
EXTT6=
EXTT7=
EXTT8=
EXTT9=
EXTT10=
PLAYORDER=
